<mxfile host="app.diagrams.net" modified="2024-04-26T15:51:25.321Z" agent="Mozilla/5.0 (Windows NT 10.0; Win64; x64; rv:124.0) Gecko/20100101 Firefox/124.0" etag="bu3UJOiW-OD0zPb18lGz" version="24.2.9" type="device">
  <diagram name="Page-1" id="fO-cs-pgLEiUnnfv_3OV">
    <mxGraphModel dx="2350" dy="1964" grid="1" gridSize="10" guides="1" tooltips="1" connect="1" arrows="1" fold="1" page="1" pageScale="1" pageWidth="850" pageHeight="1100" math="0" shadow="0">
      <root>
        <mxCell id="0" />
        <mxCell id="1" parent="0" />
        <mxCell id="SLYycC6kJruULBW9aMzU-10" value="" style="rounded=0;whiteSpace=wrap;html=1;" vertex="1" parent="1">
          <mxGeometry x="190" y="-80" width="390" height="500" as="geometry" />
        </mxCell>
        <mxCell id="SLYycC6kJruULBW9aMzU-22" style="edgeStyle=orthogonalEdgeStyle;rounded=0;orthogonalLoop=1;jettySize=auto;html=1;exitX=0;exitY=1;exitDx=0;exitDy=0;entryX=1;entryY=1;entryDx=0;entryDy=0;" edge="1" parent="1" source="SLYycC6kJruULBW9aMzU-11" target="SLYycC6kJruULBW9aMzU-16">
          <mxGeometry relative="1" as="geometry" />
        </mxCell>
        <mxCell id="SLYycC6kJruULBW9aMzU-26" style="edgeStyle=orthogonalEdgeStyle;rounded=0;orthogonalLoop=1;jettySize=auto;html=1;exitX=0.5;exitY=0;exitDx=0;exitDy=0;entryX=0;entryY=0;entryDx=0;entryDy=0;" edge="1" parent="1" source="SLYycC6kJruULBW9aMzU-11" target="SLYycC6kJruULBW9aMzU-12">
          <mxGeometry relative="1" as="geometry">
            <Array as="points">
              <mxPoint x="260" y="22" />
            </Array>
          </mxGeometry>
        </mxCell>
        <mxCell id="SLYycC6kJruULBW9aMzU-11" value="Phone application (client)" style="ellipse;whiteSpace=wrap;html=1;aspect=fixed;" vertex="1" parent="1">
          <mxGeometry x="220" y="230" width="80" height="80" as="geometry" />
        </mxCell>
        <mxCell id="SLYycC6kJruULBW9aMzU-27" style="edgeStyle=orthogonalEdgeStyle;rounded=0;orthogonalLoop=1;jettySize=auto;html=1;exitX=0;exitY=0.5;exitDx=0;exitDy=0;entryX=1;entryY=0;entryDx=0;entryDy=0;" edge="1" parent="1" source="SLYycC6kJruULBW9aMzU-12" target="SLYycC6kJruULBW9aMzU-11">
          <mxGeometry relative="1" as="geometry" />
        </mxCell>
        <mxCell id="SLYycC6kJruULBW9aMzU-38" style="edgeStyle=orthogonalEdgeStyle;rounded=0;orthogonalLoop=1;jettySize=auto;html=1;exitX=1;exitY=0.5;exitDx=0;exitDy=0;entryX=0;entryY=0;entryDx=0;entryDy=0;" edge="1" parent="1" source="SLYycC6kJruULBW9aMzU-12" target="SLYycC6kJruULBW9aMzU-31">
          <mxGeometry relative="1" as="geometry" />
        </mxCell>
        <mxCell id="SLYycC6kJruULBW9aMzU-12" value="Application server" style="ellipse;whiteSpace=wrap;html=1;aspect=fixed;" vertex="1" parent="1">
          <mxGeometry x="470" y="10" width="80" height="80" as="geometry" />
        </mxCell>
        <mxCell id="SLYycC6kJruULBW9aMzU-34" style="edgeStyle=orthogonalEdgeStyle;rounded=0;orthogonalLoop=1;jettySize=auto;html=1;exitX=0.5;exitY=1;exitDx=0;exitDy=0;entryX=0;entryY=0.5;entryDx=0;entryDy=0;" edge="1" parent="1" source="SLYycC6kJruULBW9aMzU-16" target="SLYycC6kJruULBW9aMzU-33">
          <mxGeometry relative="1" as="geometry" />
        </mxCell>
        <mxCell id="SLYycC6kJruULBW9aMzU-16" value="User" style="ellipse;whiteSpace=wrap;html=1;aspect=fixed;" vertex="1" parent="1">
          <mxGeometry x="-120" y="230" width="80" height="80" as="geometry" />
        </mxCell>
        <mxCell id="SLYycC6kJruULBW9aMzU-21" style="edgeStyle=orthogonalEdgeStyle;rounded=0;orthogonalLoop=1;jettySize=auto;html=1;exitX=1;exitY=0;exitDx=0;exitDy=0;entryX=0.205;entryY=0.136;entryDx=0;entryDy=0;entryPerimeter=0;" edge="1" parent="1" source="SLYycC6kJruULBW9aMzU-16" target="SLYycC6kJruULBW9aMzU-11">
          <mxGeometry relative="1" as="geometry" />
        </mxCell>
        <mxCell id="SLYycC6kJruULBW9aMzU-23" value="the user&#39;s public items and their status, user info, friend requests, outgoing borrow requests, outgoing chat messages, challenge statuses" style="text;html=1;align=center;verticalAlign=middle;whiteSpace=wrap;rounded=0;" vertex="1" parent="1">
          <mxGeometry x="260" y="-75" width="210" height="120" as="geometry" />
        </mxCell>
        <mxCell id="SLYycC6kJruULBW9aMzU-28" value="friend info, friend&#39;s items, incoming borrow requests friend requests, incoming chat messages, challenge updates" style="text;html=1;align=center;verticalAlign=middle;whiteSpace=wrap;rounded=0;" vertex="1" parent="1">
          <mxGeometry x="290" y="60" width="150" height="80" as="geometry" />
        </mxCell>
        <mxCell id="SLYycC6kJruULBW9aMzU-29" value="User input: navigating filepaths, taking images, entering information into fields " style="text;html=1;align=center;verticalAlign=middle;whiteSpace=wrap;rounded=0;" vertex="1" parent="1">
          <mxGeometry x="-30" y="180" width="170" height="50" as="geometry" />
        </mxCell>
        <mxCell id="SLYycC6kJruULBW9aMzU-30" value="Notifications, messages, prompt, Application UI " style="text;html=1;align=center;verticalAlign=middle;whiteSpace=wrap;rounded=0;" vertex="1" parent="1">
          <mxGeometry x="-15" y="250" width="140" height="40" as="geometry" />
        </mxCell>
        <mxCell id="SLYycC6kJruULBW9aMzU-37" style="edgeStyle=orthogonalEdgeStyle;rounded=0;orthogonalLoop=1;jettySize=auto;html=1;exitX=0.5;exitY=0;exitDx=0;exitDy=0;entryX=1;entryY=0;entryDx=0;entryDy=0;" edge="1" parent="1" source="SLYycC6kJruULBW9aMzU-31" target="SLYycC6kJruULBW9aMzU-12">
          <mxGeometry relative="1" as="geometry">
            <Array as="points">
              <mxPoint x="730" y="22" />
            </Array>
          </mxGeometry>
        </mxCell>
        <mxCell id="SLYycC6kJruULBW9aMzU-43" style="edgeStyle=orthogonalEdgeStyle;rounded=0;orthogonalLoop=1;jettySize=auto;html=1;exitX=0.5;exitY=1;exitDx=0;exitDy=0;entryX=1;entryY=0.5;entryDx=0;entryDy=0;" edge="1" parent="1" source="SLYycC6kJruULBW9aMzU-31" target="SLYycC6kJruULBW9aMzU-33">
          <mxGeometry relative="1" as="geometry" />
        </mxCell>
        <mxCell id="SLYycC6kJruULBW9aMzU-31" value="Developers" style="ellipse;whiteSpace=wrap;html=1;aspect=fixed;" vertex="1" parent="1">
          <mxGeometry x="690" y="180" width="80" height="80" as="geometry" />
        </mxCell>
        <mxCell id="SLYycC6kJruULBW9aMzU-39" style="edgeStyle=orthogonalEdgeStyle;rounded=0;orthogonalLoop=1;jettySize=auto;html=1;exitX=0.5;exitY=0;exitDx=0;exitDy=0;entryX=1;entryY=0.5;entryDx=0;entryDy=0;" edge="1" parent="1" source="SLYycC6kJruULBW9aMzU-33" target="SLYycC6kJruULBW9aMzU-11">
          <mxGeometry relative="1" as="geometry" />
        </mxCell>
        <mxCell id="SLYycC6kJruULBW9aMzU-33" value="Distribution platform" style="ellipse;whiteSpace=wrap;html=1;aspect=fixed;" vertex="1" parent="1">
          <mxGeometry x="470" y="330" width="80" height="80" as="geometry" />
        </mxCell>
        <mxCell id="SLYycC6kJruULBW9aMzU-35" value="Download the app for the first time" style="text;html=1;align=center;verticalAlign=middle;whiteSpace=wrap;rounded=0;" vertex="1" parent="1">
          <mxGeometry x="-15" y="330" width="125" height="40" as="geometry" />
        </mxCell>
        <mxCell id="SLYycC6kJruULBW9aMzU-40" value="Get Application Updates" style="text;html=1;align=center;verticalAlign=middle;whiteSpace=wrap;rounded=0;" vertex="1" parent="1">
          <mxGeometry x="370" y="240" width="80" height="30" as="geometry" />
        </mxCell>
        <mxCell id="SLYycC6kJruULBW9aMzU-44" value="Push latest app version" style="text;html=1;align=center;verticalAlign=middle;whiteSpace=wrap;rounded=0;" vertex="1" parent="1">
          <mxGeometry x="640" y="330" width="80" height="30" as="geometry" />
        </mxCell>
        <mxCell id="SLYycC6kJruULBW9aMzU-45" value="Get issue reports" style="text;html=1;align=center;verticalAlign=middle;whiteSpace=wrap;rounded=0;" vertex="1" parent="1">
          <mxGeometry x="610" y="50" width="60" height="30" as="geometry" />
        </mxCell>
        <mxCell id="SLYycC6kJruULBW9aMzU-46" value="Add new categories and/or challenges alongside app version updates" style="text;html=1;align=center;verticalAlign=middle;whiteSpace=wrap;rounded=0;" vertex="1" parent="1">
          <mxGeometry x="590" y="-40" width="120" height="50" as="geometry" />
        </mxCell>
      </root>
    </mxGraphModel>
  </diagram>
</mxfile>
